<svg data-v-2cb57da0="" version="1.0" xmlns="http://www.w3.org/2000/svg" xmlns:xlink="http://www.w3.org/1999/xlink" width="100%" height="100%" viewBox="0 0 340.000000 250.000000" preserveAspectRatio="xMidYMid meet" color-interpolation-filters="sRGB" style="margin: auto;"><rect data-v-2cb57da0="" x="0" y="0" width="100%" height="100%" fill="#fff" fill-opacity="0" class="background"></rect> <rect data-v-2cb57da0="" x="0" y="0" width="100%" height="100%" fill="url(#watermark)" fill-opacity="1" class="watermarklayer"></rect> <g data-v-2cb57da0="" fill="#e50012" class="icon-text-wrapper icon-svg-group iconsvg" transform="translate(47.82499694824219,100.54035377502441)"><g class="iconsvg-imagesvg" transform="matrix(1,0,0,1,0,0)" opacity="1"><g><rect fill="#e50012" fill-opacity="0" stroke-width="2" x="0" y="0" width="60" height="48.91929132253304" class="image-rect"></rect> <svg x="0" y="0" width="60" height="48.91929132253304" filtersec="colorsb8790889262" class="image-svg-svg primary" style="overflow: visible;"><svg version="1.1" id="图层_1" xmlns="http://www.w3.org/2000/svg" xmlns:xlink="http://www.w3.org/1999/xlink" x="0px" y="0px" viewBox="1.6299999952316284 0.9700000286102295 103.37000274658203 84.27999877929688" enable-background="new 0 0 106 86" xml:space="preserve">
<g>
	<polygon fill="#231815" points="81.11,85.25 39.73,85.25 63.62,39.01 105,39.01 	"></polygon>
	<polygon fill="#231815" points="104.85,33.41 63.47,33.41 30.37,0.97 71.75,0.97 	"></polygon>
	<polygon fill="#E50012" points="35.38,83.29 1.63,49.63 25.52,3.39 59.27,37.05 	"></polygon>
</g>
</svg></svg> <!----></g></g> <g transform="translate(67,14.729646682739258)"><g data-gra="path-name" fill-rule="" class="tp-name iconsvg-namesvg" opacity="1" transform="matrix(1,0,0,1,0,0)"><g transform="scale(1)"><g><path d="M2.9-19.52L20.55-19.52 20.27-16.53 9.48-16.53 8.89-11.44 18.77-11.44 18.46-8.45 8.29-8.45 7.39-1.87 1.4-1.87 3.8-18.33 2.9-19.52ZM23.95-15.03L30.84-15.03 29.46-5.67 33.21-6.05 34.42-14.16 33.52-15.03 40.41-15.03 38.6-1.87 32.61-1.87 32.8-3.06 23.04-1.87 24.85-14.16 23.95-15.03ZM43.81-15.03L60.27-15.03 58.46-1.87 52.48-1.87 53.97-12.04 50.39-12.04 48.89-1.87 42.9-1.87 44.71-14.16 43.81-15.03ZM64.42-5.46L75.21-5.46 75.8-9.04 63.82-9.04 65.32-19.52 82.97-19.52 82.38-14.44 76.39-14.44 76.7-16.53 71-16.53 70.09-12.04 82.06-12.04 80.88-3.96Q80.88-3.52 80.68-3.13 80.47-2.74 80.13-2.46 79.79-2.18 79.37-2.03 78.95-1.87 78.48-1.87L78.48-1.87 62.92-1.87 63.51-6.67 64.42-5.46ZM102.67-15.03L101.49-7.26 91.92-7.26 91.61-4.86 99.99-4.86 101.49-6.05 100.59-1.87 87.43-1.87Q86.52-1.87 86.07-2.46 85.62-3.06 85.62-3.96L85.62-3.96 87.12-15.03 102.67-15.03ZM96.41-12.04L92.79-12.04 92.51-10.26 96.1-10.26 96.41-12.04ZM115.05-9.67L115.52-12.04 112.34-12.04 112.06-10.85 106.07-10.85 106.98-15.03 121.63-15.03 119.82-3.37 121.04-1.87 106.98-1.87Q106.07-1.87 105.62-2.46 105.17-3.06 105.17-3.96L105.17-3.96 106.07-9.67 115.05-9.67ZM114.46-6.67L111.47-6.67 111.16-4.86 114.15-4.86 114.46-6.67ZM125.09-15.03L131.14-15.03 130.55-10.85 134.76-15.03 140.74-15.03 130.55-6.05 129.96-1.87 123.97-1.87 125.72-14.16 125.09-15.03ZM158.89-15.03L158.58-12.04 149.01-12.04 147.82-4.86 156.18-4.86 157.68-6.05 157.08-1.87 141.52-1.87 143.61-15.03 158.89-15.03ZM163.47-21.33L170.05-21.33 169.18-15.03 178.75-15.03 176.94-1.87 170.96-1.87 172.45-12.04 168.87-12.04 167.37-1.87 161.39-1.87 164.07-20.42 163.47-21.33Z" transform="translate(-1.399999976158142, 21.329999923706055)"></path></g> <!----> <!----> <!----> <!----> <!----> <!----> <!----></g></g> <!----></g></g><defs v-gra="od"></defs></svg>